<svg class="social-media__menuIcon" version="1.1" xmlns="http://www.w3.org/2000/svg" xmlns:xlink="http://www.w3.org/1999/xlink" x="0px" y="0px" viewBox="0 0 27 21" style="enable-background:new 0 0 27 21;" xml:space="preserve">
<path class="social-media__iconFill" d="M14.5,20.9c-0.7,0-1.4,0-2,0c-0.1,0-0.1,0-0.2,0c-1.5,0-3-0.1-4.5-0.3c-1.3-0.1-2.6-0.3-3.9-0.5
	c-1.6-0.2-3-1.5-3.3-3.1c-0.2-0.9-0.3-1.7-0.4-2.6c-0.1-1-0.2-2-0.2-3C0,10,0,8.4,0.2,6.9C0.3,6,0.4,5.2,0.5,4.3
	c0.1-0.8,0.5-1.6,1-2.2C2.3,1.4,3.1,1,4.1,0.9C5,0.7,6,0.6,6.9,0.5c0.9-0.1,1.7-0.2,2.6-0.2c1.1-0.1,2.3-0.1,3.4-0.1
	c1.5,0,2.9,0,4.4,0.1c0.9,0.1,1.8,0.1,2.7,0.2c0.8,0.1,1.6,0.2,2.4,0.3c0.4,0.1,0.8,0.1,1.2,0.2c1.5,0.5,2.5,1.5,2.9,3.1
	c0.2,0.7,0.3,1.4,0.3,2.2c0.1,0.8,0.1,1.7,0.2,2.5c0,0.3,0,0.6,0,0.9c0,0.6,0,1.2,0,1.7c0,0.1,0,0.2,0,0.3c-0.1,0.8-0.1,1.6-0.2,2.4
	c-0.1,0.9-0.2,1.8-0.4,2.6c-0.3,1.7-1.5,3-3.2,3.3c-0.6,0.1-1.2,0.2-1.8,0.3c-1.3,0.1-2.5,0.3-3.8,0.4c-1,0.1-2,0.1-3.1,0.1
	C14.6,20.9,14.6,20.9,14.5,20.9z M13.5,2.2c-1.9,0-3.9,0.1-5.8,0.3C6.6,2.6,5.5,2.8,4.3,2.9C3.5,3,2.8,3.7,2.6,4.5
	c-0.3,1.5-0.4,3-0.5,4.6c-0.1,2.5,0.1,4.9,0.5,7.3c0.1,0.8,0.8,1.5,1.6,1.6c1,0.2,2,0.3,2.9,0.4c1,0.1,2,0.2,3,0.2
	c1.4,0.1,2.7,0.1,4.1,0.1c1.2,0,2.4-0.1,3.6-0.2c0.8,0,1.6-0.1,2.4-0.2c0.8-0.1,1.5-0.2,2.3-0.3c0.9-0.1,1.6-0.7,1.8-1.6
	c0.1-0.7,0.2-1.4,0.3-2.1c0.1-1,0.2-2,0.2-2.9c0-1.4,0-2.8-0.1-4.2c-0.1-0.9-0.2-1.7-0.3-2.6c-0.1-0.9-0.7-1.5-1.6-1.7
	c-0.3-0.1-0.7-0.1-1-0.2c-1.4-0.2-2.7-0.3-4.1-0.4C16.3,2.3,14.9,2.2,13.5,2.2z"/>
<path class="social-media__iconFill" d="M10.4,16.5c0-4,0-7.9,0-11.9c3.5,2,6.9,3.9,10.4,5.9c0,0,0,0,0,0C17.3,12.5,13.9,14.5,10.4,16.5z M16.6,10.5
	c-1.4-0.8-2.7-1.6-4.1-2.4c0,1.6,0,3.1,0,4.7C13.9,12.1,15.2,11.3,16.6,10.5z"/>
</svg>
