<svg xmlns="http://www.w3.org/2000/svg" width="820" height="595" viewBox="0 0 820 595" fill="none">
    <path d="M-111.933 347.728C-69.3942 436.571 29.7894 485.498 114.655 535.601C172.473 569.807 237.423 598.286 304.488 593.44C416.022 585.279 501.74 488.66 610.102 460.928C648.515 451.151 689.449 450.06 725.467 433.443C790.571 403.42 824.81 325.505 817.672 254.122C810.533 182.738 768.669 118.676 716.353 69.5334C676.311 31.8789 625.781 0.197763 570.823 1.33283C499.639 2.84622 439.251 60.9325 414.382 127.633C396.727 174.89 385.121 236.095 336.582 250.098C307.74 258.372 277.261 244.877 252.534 227.953C197.855 190.607 156.516 135.587 99.6746 101.574C42.8334 67.5603 -42.4242 63.2475 -79.3661 118.15C-90.0873 133.996 -95.283 152.875 -99.6612 171.515C-114.13 233.396 -133.983 301.368 -111.805 347.701" stroke="#D1E0D7" stroke-miterlimit="10"/>
</svg>
