<svg xmlns="http://www.w3.org/2000/svg" width="579" height="638" viewBox="0 0 579 638" fill="none">
    <path d="M93.7433 612.296C116.414 623.826 152.38 631.346 182.195 625.646C218.535 618.618 226.7 569.494 254.907 545.491C276.52 527.073 308.699 525.65 335.752 534.369C362.806 543.087 386.103 560.332 409.347 576.697C439.443 597.922 470.809 618.399 505.971 629.25C541.132 640.1 580.981 640.549 613.207 622.728C649.273 602.78 670.478 563.594 683.275 524.386C691.12 500.432 696.474 474.019 687.667 450.375C670.375 403.947 610.366 391.992 575.344 356.911C532.461 314.007 533.885 245.419 514.475 187.958C486.176 104.222 409.866 42.5603 325.719 15.585C278.194 0.324196 225.788 -5.00597 178.729 11.6178C131.705 28.2821 91.7342 70.2551 87.6027 119.93C83.4871 169.377 113.102 214.276 134.505 259.053C155.909 303.83 167.816 362.474 134.243 398.961C114.138 420.834 83.2158 428.206 55.9097 439.905C28.6036 451.604 0.594255 473.87 1.24869 503.599C1.5307 516.938 7.72916 529.477 14.8105 540.821C36.9732 576.404 72.0309 601.213 93.7081 612.255" stroke="#D1E0D7" stroke-miterlimit="10"/>
</svg>
