<?xml version="1.0" encoding="utf-8"?>
<!-- Generator: Adobe Illustrator 26.0.1, SVG Export Plug-In . SVG Version: 6.00 Build 0)  -->
<svg version="1.1" xmlns="http://www.w3.org/2000/svg" xmlns:xlink="http://www.w3.org/1999/xlink" x="0px" y="0px"
	 viewBox="0 0 13 290" style="enable-background:new 0 0 13 290;" xml:space="preserve">
<style type="text/css">
	.st0{clip-path:url(#SVGID_00000054960068564190738950000008886365814777397396_);}
	.st1{fill:none;}
	.st2{fill:none;stroke:#00A3E0;stroke-width:1.5;stroke-linecap:square;}
</style>
<g>
	<defs>
		<rect id="SVGID_1_" width="13" height="290"/>
	</defs>
	<clipPath id="SVGID_00000156557835369203488020000005905003286869681028_">
		<use xlink:href="#SVGID_1_"  style="overflow:visible;"/>
	</clipPath>
	<g style="clip-path:url(#SVGID_00000156557835369203488020000005905003286869681028_);">
		<rect x="-7294" y="-10519" class="st1" width="12358" height="12614"/>
		<line id="Line" class="st2" x1="-85.2" y1="251" x2="83.2" y2="419.1"/>
		<line id="Line-Copy-14" class="st2" x1="-85.2" y1="170.6" x2="83.2" y2="338.8"/>
		<line id="Line-Copy-28" class="st2" x1="-85.2" y1="78" x2="83.2" y2="246.1"/>
		<line id="Line-Copy-42" class="st2" x1="-85.2" y1="-8.5" x2="83.2" y2="159.6"/>
		<line id="Line-Copy-56" class="st2" x1="-85.2" y1="-95.1" x2="83.2" y2="73.1"/>
		<line id="Line-Copy-7" class="st2" x1="-85.2" y1="164.5" x2="83.2" y2="332.6"/>
		<line id="Line-Copy-15" class="st2" x1="-85.2" y1="84.1" x2="83.2" y2="252.3"/>
		<line id="Line-Copy-29" class="st2" x1="-85.2" y1="3.8" x2="83.2" y2="172"/>
		<line id="Line-Copy-57" class="st2" x1="-85.2" y1="-82.7" x2="83.2" y2="85.5"/>
		<line id="Line-Copy-43" class="st2" x1="-85.2" y1="-51.8" x2="83.2" y2="116.4"/>
		<line id="Line-Copy-58" class="st2" x1="-85.2" y1="-138.3" x2="83.2" y2="29.9"/>
		<line id="Line-Copy" class="st2" x1="-85.2" y1="288" x2="83.2" y2="456.2"/>
		<line id="Line-Copy-16" class="st2" x1="-85.2" y1="244.8" x2="83.2" y2="413"/>
		<line id="Line-Copy-30" class="st2" x1="-85.2" y1="152.1" x2="83.2" y2="320.3"/>
		<line id="Line-Copy-44" class="st2" x1="-85.2" y1="65.6" x2="83.2" y2="233.8"/>
		<line id="Line-Copy-8" class="st2" x1="-85.2" y1="238.6" x2="83.2" y2="406.8"/>
		<line id="Line-Copy-17" class="st2" x1="-85.2" y1="158.3" x2="83.2" y2="326.5"/>
		<line id="Line-Copy-31" class="st2" x1="-85.2" y1="71.8" x2="83.2" y2="239.9"/>
		<line id="Line-Copy-45" class="st2" x1="-85.2" y1="-14.7" x2="83.2" y2="153.4"/>
		<line id="Line-Copy-59" class="st2" x1="-85.2" y1="-101.2" x2="83.2" y2="66.9"/>
		<line id="Line-Copy-3" class="st2" x1="-85.2" y1="275.7" x2="83.2" y2="443.9"/>
		<line id="Line-Copy-18" class="st2" x1="-85.2" y1="220.1" x2="83.2" y2="388.2"/>
		<line id="Line-Copy-32" class="st2" x1="-85.2" y1="127.4" x2="83.2" y2="295.5"/>
		<line id="Line-Copy-46" class="st2" x1="-85.2" y1="40.9" x2="83.2" y2="209"/>
		<line id="Line-Copy-9" class="st2" x1="-85.2" y1="213.9" x2="83.2" y2="382.1"/>
		<line id="Line-Copy-19" class="st2" x1="-85.2" y1="133.6" x2="83.2" y2="301.7"/>
		<line id="Line-Copy-33" class="st2" x1="-85.2" y1="53.2" x2="83.2" y2="221.4"/>
		<line id="Line-Copy-47" class="st2" x1="-85.2" y1="-27.1" x2="83.2" y2="141.1"/>
		<line id="Line-Copy-60" class="st2" x1="-85.2" y1="-113.6" x2="83.2" y2="54.6"/>
		<line id="Line-Copy-5" class="st2" x1="-85.2" y1="263.3" x2="83.2" y2="431.5"/>
		<line id="Line-Copy-20" class="st2" x1="-85.2" y1="195.4" x2="83.2" y2="363.5"/>
		<line id="Line-Copy-34" class="st2" x1="-85.2" y1="102.7" x2="83.2" y2="270.8"/>
		<line id="Line-Copy-48" class="st2" x1="-85.2" y1="16.2" x2="83.2" y2="184.3"/>
		<line id="Line-Copy-61" class="st2" x1="-85.2" y1="-70.3" x2="83.2" y2="97.8"/>
		<line id="Line-Copy-10" class="st2" x1="-85.2" y1="189.2" x2="83.2" y2="357.3"/>
		<line id="Line-Copy-21" class="st2" x1="-85.2" y1="108.9" x2="83.2" y2="277"/>
		<line id="Line-Copy-35" class="st2" x1="-85.2" y1="28.5" x2="83.2" y2="196.7"/>
		<line id="Line-Copy-62" class="st2" x1="-85.2" y1="-58" x2="83.2" y2="110.2"/>
		<line id="Line-Copy-49" class="st2" x1="-85.2" y1="-39.5" x2="83.2" y2="128.7"/>
		<line id="Line-Copy-63" class="st2" x1="-85.2" y1="-126" x2="83.2" y2="42.2"/>
		<line id="Line-Copy-2" class="st2" x1="-85.2" y1="281.9" x2="83.2" y2="450"/>
		<line id="Line-Copy-22" class="st2" x1="-85.2" y1="232.4" x2="83.2" y2="400.6"/>
		<line id="Line-Copy-36" class="st2" x1="-85.2" y1="139.8" x2="83.2" y2="307.9"/>
		<line id="Line-Copy-50" class="st2" x1="-85.2" y1="47.1" x2="83.2" y2="215.2"/>
		<line id="Line-Copy-11" class="st2" x1="-85.2" y1="226.2" x2="83.2" y2="394.4"/>
		<line id="Line-Copy-23" class="st2" x1="-85.2" y1="145.9" x2="83.2" y2="314.1"/>
		<line id="Line-Copy-37" class="st2" x1="-85.2" y1="59.4" x2="83.2" y2="227.6"/>
		<line id="Line-Copy-51" class="st2" x1="-85.2" y1="-20.9" x2="83.2" y2="147.2"/>
		<line id="Line-Copy-64" class="st2" x1="-85.2" y1="-107.4" x2="83.2" y2="60.8"/>
		<line id="Line-Copy-4" class="st2" x1="-85.2" y1="269.5" x2="83.2" y2="437.7"/>
		<line id="Line-Copy-24" class="st2" x1="-85.2" y1="207.7" x2="83.2" y2="375.9"/>
		<line id="Line-Copy-38" class="st2" x1="-85.2" y1="115" x2="83.2" y2="283.2"/>
		<line id="Line-Copy-52" class="st2" x1="-85.2" y1="22.3" x2="83.2" y2="190.5"/>
		<line id="Line-Copy-65" class="st2" x1="-85.2" y1="-64.2" x2="83.2" y2="104"/>
		<line id="Line-Copy-12" class="st2" x1="-85.2" y1="201.5" x2="83.2" y2="369.7"/>
		<line id="Line-Copy-25" class="st2" x1="-85.2" y1="121.2" x2="83.2" y2="289.4"/>
		<line id="Line-Copy-39" class="st2" x1="-85.2" y1="34.7" x2="83.2" y2="202.9"/>
		<line id="Line-Copy-53" class="st2" x1="-85.2" y1="-33.3" x2="83.2" y2="134.9"/>
		<line id="Line-Copy-66" class="st2" x1="-85.2" y1="-119.8" x2="83.2" y2="48.4"/>
		<line id="Line-Copy-6" class="st2" x1="-85.2" y1="257.1" x2="83.2" y2="425.3"/>
		<line id="Line-Copy-26" class="st2" x1="-85.2" y1="183" x2="83.2" y2="351.2"/>
		<line id="Line-Copy-40" class="st2" x1="-85.2" y1="90.3" x2="83.2" y2="258.5"/>
		<line id="Line-Copy-54" class="st2" x1="-85.2" y1="-2.4" x2="83.2" y2="165.8"/>
		<line id="Line-Copy-67" class="st2" x1="-85.2" y1="-88.9" x2="83.2" y2="79.3"/>
		<line id="Line-Copy-13" class="st2" x1="-85.2" y1="176.8" x2="83.2" y2="345"/>
		<line id="Line-Copy-27" class="st2" x1="-85.2" y1="96.5" x2="83.2" y2="264.7"/>
		<line id="Line-Copy-41" class="st2" x1="-85.2" y1="10" x2="83.2" y2="178.1"/>
		<line id="Line-Copy-68" class="st2" x1="-85.2" y1="-76.5" x2="83.2" y2="91.6"/>
		<line id="Line-Copy-70" class="st2" x1="-85.2" y1="-144.5" x2="83.2" y2="23.7"/>
		<line id="Line-Copy-71" class="st2" x1="-85.2" y1="-150.7" x2="83.2" y2="17.5"/>
		<line id="Line-Copy-72" class="st2" x1="-85.2" y1="-156.9" x2="83.2" y2="11.3"/>
		<line id="Line-Copy-73" class="st2" x1="-85.2" y1="-163" x2="83.2" y2="5.1"/>
		<line id="Line-Copy-55" class="st2" x1="-85.2" y1="-45.6" x2="83.2" y2="122.5"/>
		<line id="Line-Copy-69" class="st2" x1="-85.2" y1="-132.1" x2="83.2" y2="36"/>
	</g>
</g>
</svg>
