<svg xmlns="http://www.w3.org/2000/svg" viewBox="0 0 290 13"><defs><style>.cls-1,.cls-3{fill:none}.cls-3{stroke:#00a3e0;stroke-linecap:square;stroke-width:1.5px}</style><clipPath id="clip-path"><path class="cls-1" d="M0 0h290v13H0z"/></clipPath></defs><g clip-path="url(#clip-path)"><path class="cls-1" d="M-1805-7294h12614V5064H-1805z"/><path id="Line" class="cls-3" d="M39.03-85.21L-129.13 83.21"/><path id="Line-Copy-14" class="cls-3" d="M119.36-85.21L-48.8 83.21"/><path id="Line-Copy-28" class="cls-3" d="M212.04-85.21L43.88 83.21"/><path id="Line-Copy-42" class="cls-3" d="M298.55-85.21L130.39 83.21"/><path id="Line-Copy-56" class="cls-3" d="M385.06-85.21L216.9 83.21"/><path id="Line-Copy-7" class="cls-3" d="M125.54-85.21L-42.63 83.21"/><path id="Line-Copy-15" class="cls-3" d="M205.87-85.21L37.7 83.21"/><path id="Line-Copy-29" class="cls-3" d="M286.19-85.21L118.03 83.21"/><path id="Line-Copy-57" class="cls-3" d="M372.7-85.21L204.54 83.21"/><path id="Line-Copy-43" class="cls-3" d="M341.8-85.21L173.64 83.21"/><path id="Line-Copy-58" class="cls-3" d="M428.31-85.21L260.15 83.21"/><path id="Line-Copy" class="cls-3" d="M1.96-85.21L-166.21 83.21"/><path id="Line-Copy-16" class="cls-3" d="M45.21-85.21L-122.95 83.21"/><path id="Line-Copy-30" class="cls-3" d="M137.9-85.21L-30.27 83.21"/><path id="Line-Copy-44" class="cls-3" d="M224.4-85.21L56.24 83.21"/><path id="Line-Copy-8" class="cls-3" d="M51.39-85.21L-116.77 83.21"/><path id="Line-Copy-17" class="cls-3" d="M131.72-85.21L-36.45 83.21"/><path id="Line-Copy-31" class="cls-3" d="M218.22-85.21L50.06 83.21"/><path id="Line-Copy-45" class="cls-3" d="M304.73-85.21L136.57 83.21"/><path id="Line-Copy-59" class="cls-3" d="M391.24-85.21L223.07 83.21"/><path id="Line-Copy-3" class="cls-3" d="M14.31-85.21L-153.85 83.21"/><path id="Line-Copy-18" class="cls-3" d="M69.93-85.21L-98.24 83.21"/><path id="Line-Copy-32" class="cls-3" d="M162.61-85.21L-5.55 83.21"/><path id="Line-Copy-46" class="cls-3" d="M249.12-85.21L80.96 83.21"/><path id="Line-Copy-9" class="cls-3" d="M76.1-85.21L-92.06 83.21"/><path id="Line-Copy-19" class="cls-3" d="M156.43-85.21L-11.73 83.21"/><path id="Line-Copy-33" class="cls-3" d="M236.76-85.21L68.6 83.21"/><path id="Line-Copy-47" class="cls-3" d="M317.09-85.21L148.93 83.21"/><path id="Line-Copy-60" class="cls-3" d="M403.6-85.21L235.43 83.21"/><path id="Line-Copy-5" class="cls-3" d="M26.67-85.21L-141.49 83.21"/><path id="Line-Copy-20" class="cls-3" d="M94.64-85.21L-73.52 83.21"/><path id="Line-Copy-34" class="cls-3" d="M187.33-85.21L19.17 83.21"/><path id="Line-Copy-48" class="cls-3" d="M273.83-85.21L105.67 83.21"/><path id="Line-Copy-61" class="cls-3" d="M360.34-85.21L192.18 83.21"/><path id="Line-Copy-10" class="cls-3" d="M100.82-85.21L-67.34 83.21"/><path id="Line-Copy-21" class="cls-3" d="M181.15-85.21L12.99 83.21"/><path id="Line-Copy-35" class="cls-3" d="M261.48-85.21L93.31 83.21"/><path id="Line-Copy-62" class="cls-3" d="M347.98-85.21L179.82 83.21"/><path id="Line-Copy-49" class="cls-3" d="M329.45-85.21L161.28 83.21"/><path id="Line-Copy-63" class="cls-3" d="M415.95-85.21L247.79 83.21"/><path id="Line-Copy-2" class="cls-3" d="M8.14-85.21L-160.03 83.21"/><path id="Line-Copy-22" class="cls-3" d="M57.57-85.21L-110.6 83.21"/><path id="Line-Copy-36" class="cls-3" d="M150.25-85.21L-17.91 83.21"/><path id="Line-Copy-50" class="cls-3" d="M242.94-85.21L74.78 83.21"/><path id="Line-Copy-11" class="cls-3" d="M63.75-85.21L-104.42 83.21"/><path id="Line-Copy-23" class="cls-3" d="M144.07-85.21L-24.09 83.21"/><path id="Line-Copy-37" class="cls-3" d="M230.58-85.21L62.42 83.21"/><path id="Line-Copy-51" class="cls-3" d="M310.91-85.21L142.75 83.21"/><path id="Line-Copy-64" class="cls-3" d="M397.42-85.21L229.25 83.21"/><path id="Line-Copy-4" class="cls-3" d="M20.49-85.21L-147.67 83.21"/><path id="Line-Copy-24" class="cls-3" d="M82.28-85.21L-85.88 83.21"/><path id="Line-Copy-38" class="cls-3" d="M174.97-85.21L6.81 83.21"/><path id="Line-Copy-52" class="cls-3" d="M267.66-85.21L99.49 83.21"/><path id="Line-Copy-65" class="cls-3" d="M354.16-85.21L186 83.21"/><path id="Line-Copy-12" class="cls-3" d="M88.46-85.21L-79.7 83.21"/><path id="Line-Copy-25" class="cls-3" d="M168.79-85.21L.63 83.21"/><path id="Line-Copy-39" class="cls-3" d="M255.3-85.21L87.13 83.21"/><path id="Line-Copy-53" class="cls-3" d="M323.27-85.21L155.1 83.21"/><path id="Line-Copy-66" class="cls-3" d="M409.77-85.21L241.61 83.21"/><path id="Line-Copy-6" class="cls-3" d="M32.85-85.21L-135.31 83.21"/><path id="Line-Copy-26" class="cls-3" d="M107-85.21L-61.16 83.21"/><path id="Line-Copy-40" class="cls-3" d="M199.69-85.21L31.52 83.21"/><path id="Line-Copy-54" class="cls-3" d="M292.37-85.21L124.21 83.21"/><path id="Line-Copy-67" class="cls-3" d="M378.88-85.21L210.72 83.21"/><path id="Line-Copy-13" class="cls-3" d="M113.18-85.21L-54.98 83.21"/><path id="Line-Copy-27" class="cls-3" d="M193.51-85.21L25.34 83.21"/><path id="Line-Copy-41" class="cls-3" d="M280.01-85.21L111.85 83.21"/><path id="Line-Copy-68" class="cls-3" d="M366.52-85.21L198.36 83.21"/><path id="Line-Copy-70" class="cls-3" d="M434.49-85.21L266.33 83.21"/><path id="Line-Copy-71" class="cls-3" d="M440.67-85.21L272.51 83.21"/><path id="Line-Copy-72" class="cls-3" d="M446.85-85.21L278.69 83.21"/><path id="Line-Copy-73" class="cls-3" d="M453.03-85.21L284.86 83.21"/><path id="Line-Copy-55" class="cls-3" d="M335.63-85.21L167.46 83.21"/><path id="Line-Copy-69" class="cls-3" d="M422.13-85.21L253.97 83.21"/></g></svg>