<svg width="924" height="1098" viewBox="0 0 924 1098" fill="none" xmlns="http://www.w3.org/2000/svg">
<g clip-path="url(#clip0_470_6224)">
<path d="M-105.424 638.728C-62.8854 727.571 36.2981 776.498 121.164 826.6C178.982 860.807 243.932 889.286 310.997 884.44C422.531 876.279 508.249 779.66 616.611 751.928C655.024 742.151 695.958 741.06 731.976 724.443C797.08 694.42 831.319 616.505 824.181 545.122C817.042 473.738 775.178 409.676 722.862 360.533C682.82 322.879 632.29 291.198 577.332 292.333C506.148 293.846 445.76 351.932 420.891 418.633C403.236 465.89 391.63 527.095 343.091 541.097C314.249 549.372 283.77 535.877 259.043 518.953C204.364 481.606 163.025 426.587 106.183 392.574C49.3422 358.56 -35.9154 354.247 -72.8573 409.15C-83.5786 424.995 -88.7742 443.875 -93.1524 462.515C-107.622 524.396 -127.475 592.368 -105.296 638.701" stroke="#D1E0D7" stroke-miterlimit="10"/>
</g>
<defs>
<clipPath id="clip0_470_6224">
<rect width="878.5" height="737.787" fill="white" transform="translate(521.983 1097.55) rotate(-147.025)"/>
</clipPath>
</defs>
</svg>
